# xmcd
#
# Track frame offsets:
#	150
#	2120
#	21781
#	46322
#	61389
#	82429
#	89329
#	116193
#	126705
#	146832
#	162622
#	173872
#	197755
#	211086
#	226846
#	229846
#	246519
#	266696
#	280396
#	291678
#	298986
#	319272
#
# Disc length: 4329 seconds
#
# Revision: 1
# Processed by: cddbd v1.5.2PL0 Copyright (c) Steve Scherf et al.
# Submitted via: audiograbber 1.83.01
#
DISCID=6d10e716
DTITLE=ZÉ VICENTE DA PARAÍBA - VIOLA E AMIGOS
DYEAR=1900
DGENRE=
TTITLE0=DPOIMENTO 1
TTITLE1=NÃO POSSO MAIS SER VAQUEIRO
TTITLE2=COMO COMBATER A FOME NO BRASIL
TTITLE3=EU PERDI NO TRANSPORTE DA VELHICE A BAGAGEM DA MINHA MOCIDADE
TTITLE4=DESTINO DE VAQUEIRO
TTITLE5=DEPOIMENTO 2
TTITLE6=A NATUREZA É ASSIM
TTITLE7=MINHA MÃE
TTITLE8=ENRIQUECE O JUÍZO DO POETA O CAIR DE UMA NOITE NO SERTÃO
TTITLE9=EM DEFESA DO MEIO AMBIENTE
TTITLE10=DEPOIMENTO 3
TTITLE11=FAÇA UM CANTEIRO NO PEITO, PLANTE A SEMENTE DO AMOR
TTITLE12=COMPREENÇÃO E PRUDÊNCIA CONGREGAM DOIS CORAÇÕES
TTITLE13=A MORTE DE LUIZ GONZAGA
TTITLE14=DEPOIMENTO 4
TTITLE15=CASA VELHA DE SR. RUBENS EM ALTINHO
TTITLE16=NO TEMPO DE PAI TOMÁS, PRETO VELHO E PAI VICENTE
TTITLE17=A MORTE DE MINHA FLOR
TTITLE18=LUA DE MINHA TERRA
TTITLE19=A VOCÊ MAMÃE
TTITLE20=HOMENAGEM A ZÉ VICENTE
TTITLE21=DEPOIMENTO 5
EXTD=
EXTT0=
EXTT1=
EXTT2=
EXTT3=
EXTT4=
EXTT5=
EXTT6=
EXTT7=
EXTT8=
EXTT9=
EXTT10=
EXTT11=
EXTT12=
EXTT13=
EXTT14=
EXTT15=
EXTT16=
EXTT17=
EXTT18=
EXTT19=
EXTT20=
EXTT21=
PLAYORDER=
